<svg width="224" height="224" viewBox="0 0 224 224" fill="none" xmlns="http://www.w3.org/2000/svg">
<circle cx="112" cy="112" r="109" stroke="#CB4949" stroke-width="6"/>
<circle cx="112" cy="112" r="103" stroke="#CB4949" stroke-width="6"/>
<circle cx="112" cy="112" r="98" stroke="#CB4949" stroke-width="6"/>
<path d="M208 112C208 114.891 206.134 118.188 201.469 121.66C196.859 125.09 189.998 128.305 181.249 131.059C163.788 136.554 139.481 140 112.5 140C85.5187 140 61.2116 136.554 43.7506 131.059C35.0024 128.305 28.1411 125.09 23.5315 121.66C18.8662 118.188 17 114.891 17 112C17 109.109 18.8662 105.812 23.5315 102.34C28.1411 98.9103 35.0024 95.6945 43.7506 92.9413C61.2116 87.446 85.5187 84 112.5 84C139.481 84 163.788 87.446 181.249 92.9413C189.998 95.6945 196.859 98.9103 201.469 102.34C206.134 105.812 208 109.109 208 112Z" stroke="#CB4949" stroke-width="6"/>
<path d="M199.412 151.579C198.214 154.21 195.149 156.437 189.465 157.663C183.848 158.874 176.271 158.957 167.169 157.837C149 155.602 125.451 148.664 100.896 137.482C76.3407 126.3 55.6475 113.09 42.034 100.853C35.2136 94.7214 30.3019 88.9512 27.5283 83.9194C24.7212 78.8267 24.3894 75.0524 25.5875 72.4213C26.7857 69.7903 29.8507 67.5628 35.5351 66.337C41.1516 65.1259 48.7287 65.0429 57.8313 66.1628C75.9996 68.3981 99.5492 75.3358 124.104 86.5178C148.659 97.6999 169.353 110.91 182.966 123.147C189.786 129.279 194.698 135.049 197.472 140.081C200.279 145.173 200.611 148.948 199.412 151.579Z" stroke="#CB4949" stroke-width="6"/>
<path d="M171.411 187.165C169.136 188.948 165.389 189.513 159.779 187.983C154.236 186.471 147.472 183.054 139.909 177.867C124.813 167.514 107.106 150.508 90.4622 129.272C73.8183 108.036 61.5362 86.7793 55.0902 69.6464C51.8607 61.0626 50.1592 53.6786 50.0152 47.9347C49.8695 42.1215 51.3136 38.6186 53.589 36.8352C55.8644 35.0518 59.611 34.4866 65.221 36.0171C70.7641 37.5293 77.5276 40.946 85.0911 46.133C100.187 56.486 117.894 73.4916 134.538 94.7277C151.182 115.964 163.464 137.221 169.91 154.354C173.139 162.937 174.841 170.321 174.985 176.065C175.13 181.878 173.686 185.381 171.411 187.165Z" stroke="#CB4949" stroke-width="6"/>
<path d="M112.583 207.5C109.692 207.502 106.393 205.639 102.918 200.977C99.484 196.37 96.2623 189.512 93.5014 180.766C87.9908 163.31 84.5236 139.006 84.5 112.024C84.4764 85.0432 87.9011 60.7331 93.3812 43.2673C96.1267 34.5167 99.3365 27.6525 102.762 23.0399C106.23 18.3717 109.525 16.5025 112.416 16.5C115.307 16.4975 118.607 18.3608 122.082 23.023C125.516 27.6296 128.738 34.4882 131.499 43.2339C137.009 60.6901 140.476 84.9942 140.5 111.975C140.524 138.957 137.099 163.267 131.619 180.733C128.873 189.483 125.663 196.347 122.238 200.96C118.77 205.628 115.474 207.497 112.583 207.5Z" stroke="#CB4949" stroke-width="6"/>
<path d="M72.9973 198.947C70.3652 197.751 68.1351 194.688 66.9044 189.005C65.6883 183.389 65.5987 175.812 66.7107 166.709C68.9301 148.538 75.8471 124.983 87.0077 100.418C98.1682 75.8533 111.36 55.1485 123.586 41.5244C129.711 34.6985 135.477 29.7818 140.506 27.0038C145.597 24.1923 149.371 23.8571 152.003 25.053C154.635 26.2488 156.865 29.3119 158.096 34.9952C159.312 40.6107 159.401 48.1877 158.289 57.2913C156.07 75.4616 149.153 99.0171 137.992 123.582C126.832 148.147 113.64 168.852 101.414 182.476C95.289 189.302 89.5231 194.218 84.4937 196.996C79.4035 199.808 75.6294 200.143 72.9973 198.947Z" stroke="#CB4949" stroke-width="6"/>
<path d="M37.3867 170.977C35.6014 168.703 35.0329 164.957 36.5585 159.345C38.0659 153.801 41.4766 147.034 46.657 139.467C56.9968 124.361 73.9869 106.64 95.2084 89.9772C116.43 73.3148 137.676 61.0141 154.803 54.5531C163.384 51.3161 170.767 49.6081 176.511 49.4592C182.324 49.3084 185.828 50.7494 187.613 53.0233C189.399 55.2971 189.967 59.0432 188.441 64.6545C186.934 70.1989 183.523 76.9655 178.343 84.5335C168.003 99.6389 151.013 117.36 129.792 134.023C108.57 150.685 87.3238 162.986 70.1966 169.447C61.6157 172.684 54.2331 174.392 48.4894 174.541C42.6763 174.692 39.1721 173.251 37.3867 170.977Z" stroke="#CB4949" stroke-width="6"/>
</svg>
